<?xml version="1.0" encoding="UTF-8"?>
<svg xmlns="http://www.w3.org/2000/svg" xmlns:xlink="http://www.w3.org/1999/xlink" viewBox="0 0 50 50" width="50px" height="50px">
<g id="surface76278847">
<path style=" stroke:none;fill-rule:nonzero;fill:rgb(84.313726%,11.764706%,12.156863%);fill-opacity:1;" d="M 25 50 C 11.191406 50 0 38.808594 0 25 C 0 11.191406 11.191406 0 25 0 C 38.808594 0 50 11.191406 50 25 C 50 38.808594 38.808594 50 25 50 Z M 25 50 "/>
<path style=" stroke:none;fill-rule:nonzero;fill:rgb(100%,100%,100%);fill-opacity:1;" d="M 18.699219 9.601562 C 13.683594 9.601562 9.601562 13.683594 9.601562 18.699219 L 9.601562 31.300781 C 9.601562 36.316406 13.683594 40.398438 18.699219 40.398438 L 31.300781 40.398438 C 36.316406 40.398438 40.398438 36.316406 40.398438 31.300781 L 40.398438 18.699219 C 40.398438 13.683594 36.316406 9.601562 31.300781 9.601562 Z M 18.699219 11 L 31.300781 11 C 35.558594 11 39 14.441406 39 18.699219 L 39 31.300781 C 39 35.558594 35.558594 39 31.300781 39 L 18.699219 39 C 14.441406 39 11 35.558594 11 31.300781 L 11 18.699219 C 11 14.441406 14.441406 11 18.699219 11 Z M 33.398438 15.199219 C 32.625 15.199219 32 15.828125 32 16.601562 C 32 17.375 32.625 18 33.398438 18 C 34.171875 18 34.800781 17.375 34.800781 16.601562 C 34.800781 15.828125 34.171875 15.199219 33.398438 15.199219 Z M 25 17.300781 C 20.753906 17.300781 17.300781 20.753906 17.300781 25 C 17.300781 29.246094 20.753906 32.699219 25 32.699219 C 29.246094 32.699219 32.699219 29.246094 32.699219 25 C 32.699219 20.753906 29.246094 17.300781 25 17.300781 Z M 25 18.699219 C 28.488281 18.699219 31.300781 21.511719 31.300781 25 C 31.300781 28.488281 28.488281 31.300781 25 31.300781 C 21.511719 31.300781 18.699219 28.488281 18.699219 25 C 18.699219 21.511719 21.511719 18.699219 25 18.699219 Z M 25 18.699219 "/>
</g>
</svg>
