<?xml version="1.0" encoding="UTF-8"?>
<svg xmlns="http://www.w3.org/2000/svg" xmlns:xlink="http://www.w3.org/1999/xlink" viewBox="0 0 50 50" width="50px" height="50px">
<g id="surface76263044">
<path style=" stroke:none;fill-rule:nonzero;fill:rgb(84.313726%,11.764706%,12.156863%);fill-opacity:1;" d="M 25 50 C 11.191406 50 0 38.808594 0 25 C 0 11.191406 11.191406 0 25 0 C 38.808594 0 50 11.191406 50 25 C 50 38.808594 38.808594 50 25 50 Z M 25 50 "/>
<path style=" stroke:none;fill-rule:nonzero;fill:rgb(100%,100%,100%);fill-opacity:1;" d="M 25 6.59375 C 14.8125 6.59375 6.59375 14.8125 6.59375 25 C 6.59375 35.1875 14.8125 43.40625 25 43.40625 C 35.1875 43.40625 43.40625 35.1875 43.40625 25 C 43.40625 14.8125 35.1875 6.59375 25 6.59375 Z M 25 8.207031 C 34.320312 8.207031 41.792969 15.679688 41.792969 25 C 41.792969 34.320312 34.320312 41.792969 25 41.792969 C 15.679688 41.792969 8.207031 34.320312 8.207031 25 C 8.207031 15.679688 15.679688 8.207031 25 8.207031 Z M 22.546875 16.199219 C 17.800781 16.199219 14.230469 17.023438 14.054688 17.0625 C 12.773438 17.363281 11.964844 18.664062 12.261719 19.945312 C 12.558594 21.226562 13.859375 22.03125 15.140625 21.738281 L 15.148438 21.738281 L 15.152344 21.734375 C 15.0625 21.757812 15.191406 21.726562 15.289062 21.707031 C 15.382812 21.6875 15.527344 21.65625 15.710938 21.625 C 16.078125 21.554688 16.613281 21.460938 17.277344 21.367188 C 18.605469 21.183594 20.460938 21 22.546875 21 L 22.597656 21 C 26.046875 21.003906 31.003906 21.535156 34.984375 23.871094 C 35.363281 24.09375 35.785156 24.199219 36.199219 24.199219 C 37.023438 24.199219 37.828125 23.769531 38.269531 23.015625 C 38.9375 21.878906 38.550781 20.394531 37.414062 19.730469 C 32.421875 16.796875 26.605469 16.207031 22.601562 16.199219 Z M 22.546875 17.800781 L 22.601562 17.800781 C 26.445312 17.804688 32 18.40625 36.605469 21.109375 C 36.996094 21.339844 37.117188 21.816406 36.890625 22.203125 C 36.738281 22.464844 36.472656 22.601562 36.199219 22.601562 C 36.0625 22.601562 35.925781 22.566406 35.796875 22.492188 L 35.792969 22.488281 C 31.410156 19.917969 26.203125 19.40625 22.597656 19.398438 L 22.546875 19.398438 C 20.367188 19.398438 18.445312 19.59375 17.058594 19.785156 C 16.363281 19.878906 15.804688 19.976562 15.414062 20.050781 C 15.21875 20.085938 15.0625 20.117188 14.957031 20.140625 C 14.859375 20.160156 14.863281 20.160156 14.785156 20.179688 C 14.339844 20.28125 13.921875 20.019531 13.820312 19.582031 C 13.71875 19.140625 13.976562 18.726562 14.414062 18.621094 C 14.539062 18.59375 17.984375 17.800781 22.546875 17.800781 Z M 22.59375 22.601562 C 20.589844 22.617188 18.859375 22.804688 17.59375 23 C 16.328125 23.191406 15.613281 23.367188 15.382812 23.429688 C 14.234375 23.757812 13.558594 24.96875 13.882812 26.117188 C 14.210938 27.261719 15.421875 27.9375 16.566406 27.613281 L 16.570312 27.609375 L 16.574219 27.609375 C 16.597656 27.605469 16.628906 27.597656 16.671875 27.589844 C 16.753906 27.570312 16.878906 27.542969 17.039062 27.511719 C 17.359375 27.449219 17.820312 27.359375 18.390625 27.273438 C 19.535156 27.101562 21.113281 26.929688 22.859375 26.914062 C 25.949219 26.886719 29.453125 27.339844 32.875 29.46875 C 33.230469 29.695312 33.632812 29.800781 34.023438 29.800781 C 34.75 29.800781 35.460938 29.433594 35.871094 28.777344 C 36.503906 27.765625 36.1875 26.414062 35.175781 25.78125 C 30.867188 23.097656 26.25 22.570312 22.59375 22.601562 Z M 22.609375 24.199219 C 26.097656 24.171875 30.378906 24.679688 34.332031 27.140625 C 34.609375 27.3125 34.6875 27.65625 34.515625 27.929688 C 34.402344 28.109375 34.21875 28.203125 34.023438 28.203125 C 33.917969 28.203125 33.820312 28.175781 33.726562 28.117188 L 33.722656 28.113281 C 29.96875 25.777344 26.105469 25.285156 22.84375 25.3125 C 21.003906 25.328125 19.351562 25.511719 18.152344 25.695312 C 17.554688 25.785156 17.066406 25.875 16.722656 25.945312 C 16.550781 25.976562 16.417969 26.007812 16.320312 26.027344 C 16.273438 26.039062 16.234375 26.046875 16.207031 26.054688 C 16.179688 26.0625 16.222656 26.046875 16.121094 26.078125 L 16.128906 26.074219 C 15.824219 26.160156 15.511719 25.988281 15.421875 25.679688 C 15.332031 25.363281 15.503906 25.058594 15.816406 24.96875 L 15.820312 24.96875 C 15.808594 24.972656 16.632812 24.761719 17.835938 24.578125 C 19.035156 24.394531 20.695312 24.214844 22.609375 24.199219 Z M 23 28.203125 C 19.511719 28.203125 16.929688 29.050781 16.765625 29.105469 C 15.726562 29.449219 15.15625 30.59375 15.503906 31.632812 C 15.847656 32.671875 16.996094 33.25 18.035156 32.898438 L 18.023438 32.902344 C 18.105469 32.875 18.152344 32.859375 18.394531 32.792969 C 18.636719 32.726562 18.992188 32.640625 19.4375 32.554688 C 20.332031 32.378906 21.578125 32.203125 23 32.203125 C 26.46875 32.199219 28.839844 33.03125 30.691406 34.265625 C 31.03125 34.492188 31.417969 34.601562 31.796875 34.601562 C 32.445312 34.601562 33.082031 34.28125 33.464844 33.710938 C 34.070312 32.796875 33.820312 31.546875 32.910156 30.9375 C 29.992188 28.992188 26.710938 28.199219 23 28.203125 Z M 23 29.800781 C 26.488281 29.800781 29.394531 30.519531 32.023438 32.269531 C 32.210938 32.398438 32.261719 32.632812 32.132812 32.824219 C 32.050781 32.945312 31.929688 33 31.796875 33 C 31.71875 33 31.648438 32.980469 31.578125 32.933594 C 29.472656 31.527344 26.730469 30.601562 23 30.601562 C 21.449219 30.601562 20.101562 30.792969 19.128906 30.984375 C 18.644531 31.078125 18.253906 31.175781 17.976562 31.25 C 17.703125 31.320312 17.464844 31.398438 17.535156 31.378906 L 17.527344 31.378906 L 17.523438 31.382812 C 17.308594 31.453125 17.09375 31.347656 17.019531 31.128906 C 16.949219 30.910156 17.054688 30.695312 17.273438 30.621094 C 17.320312 30.605469 19.773438 29.800781 23 29.800781 Z M 23 29.800781 "/>
</g>
</svg>
