<?xml version="1.0" encoding="UTF-8"?>
<svg xmlns="http://www.w3.org/2000/svg" xmlns:xlink="http://www.w3.org/1999/xlink" viewBox="0 0 50 50" width="50px" height="50px">
<g id="surface76460063">
<path style=" stroke:none;fill-rule:nonzero;fill:rgb(84.313726%,11.764706%,12.156863%);fill-opacity:1;" d="M 25 50 C 11.191406 50 0 38.808594 0 25 C 0 11.191406 11.191406 0 25 0 C 38.808594 0 50 11.191406 50 25 C 50 38.808594 38.808594 50 25 50 Z M 25 50 "/>
<path style=" stroke:none;fill-rule:nonzero;fill:rgb(100%,100%,100%);fill-opacity:1;" d="M 13.800781 10.300781 C 11.875 10.300781 10.300781 11.875 10.300781 13.800781 L 10.300781 36.199219 C 10.300781 38.125 11.875 39.699219 13.800781 39.699219 L 36.199219 39.699219 C 38.125 39.699219 39.699219 38.125 39.699219 36.199219 L 39.699219 13.800781 C 39.699219 11.875 38.125 10.300781 36.199219 10.300781 Z M 13.800781 11.699219 L 36.199219 11.699219 C 37.371094 11.699219 38.300781 12.628906 38.300781 13.800781 L 38.300781 36.199219 C 38.300781 37.371094 37.371094 38.300781 36.199219 38.300781 L 13.800781 38.300781 C 12.628906 38.300781 11.699219 37.371094 11.699219 36.199219 L 11.699219 13.800781 C 11.699219 12.628906 12.628906 11.699219 13.800781 11.699219 Z M 25.730469 14.5 C 25.34375 14.5 25.03125 14.8125 25.03125 15.199219 C 25.03125 15.199219 25.023438 18.609375 25.015625 22.03125 C 25.011719 23.742188 25.007812 25.453125 25.003906 26.742188 C 25 28.03125 25 28.847656 25 28.914062 C 25 30.1875 23.847656 31.226562 22.53125 31.226562 C 21.226562 31.226562 20.183594 30.183594 20.183594 28.878906 C 20.183594 27.574219 21.226562 26.53125 22.53125 26.53125 C 22.574219 26.53125 22.664062 26.546875 22.816406 26.5625 C 23.015625 26.589844 23.214844 26.527344 23.363281 26.390625 C 23.515625 26.257812 23.601562 26.070312 23.601562 25.867188 L 23.601562 22.925781 C 23.601562 22.558594 23.3125 22.25 22.945312 22.230469 C 22.835938 22.222656 22.699219 22.207031 22.53125 22.207031 C 18.855469 22.207031 15.863281 25.203125 15.863281 28.878906 C 15.863281 32.550781 18.855469 35.546875 22.53125 35.546875 C 26.207031 35.546875 29.199219 32.550781 29.199219 28.878906 L 29.199219 22.542969 C 30.21875 23.359375 31.488281 23.875 32.886719 23.875 C 33.078125 23.875 33.261719 23.863281 33.433594 23.847656 C 33.796875 23.8125 34.070312 23.511719 34.070312 23.148438 L 34.070312 19.878906 C 34.070312 19.511719 33.789062 19.207031 33.421875 19.179688 C 31.21875 19.023438 29.464844 17.308594 29.238281 15.128906 C 29.199219 14.769531 28.898438 14.5 28.539062 14.5 Z M 26.429688 15.898438 L 28.027344 15.898438 C 28.535156 18.210938 30.339844 19.96875 32.671875 20.410156 L 32.671875 22.417969 C 31.175781 22.339844 29.859375 21.59375 29.085938 20.417969 C 28.914062 20.160156 28.59375 20.042969 28.300781 20.132812 C 28.003906 20.21875 27.800781 20.492188 27.800781 20.804688 L 27.800781 28.878906 C 27.800781 31.796875 25.449219 34.148438 22.53125 34.148438 C 19.613281 34.148438 17.261719 31.796875 17.261719 28.878906 C 17.261719 26.078125 19.445312 23.855469 22.199219 23.675781 L 22.199219 25.199219 C 20.300781 25.375 18.785156 26.933594 18.785156 28.878906 C 18.785156 30.9375 20.46875 32.625 22.53125 32.625 C 24.582031 32.625 26.398438 31.011719 26.398438 28.914062 C 26.398438 28.949219 26.402344 28.035156 26.402344 26.746094 C 26.40625 25.457031 26.410156 23.746094 26.414062 22.035156 C 26.421875 18.964844 26.425781 16.496094 26.429688 15.898438 Z M 26.429688 15.898438 "/>
</g>
</svg>
