<?xml version="1.0" encoding="UTF-8"?>
<svg xmlns="http://www.w3.org/2000/svg" xmlns:xlink="http://www.w3.org/1999/xlink" viewBox="0 0 50 50" width="50px" height="50px">
<g id="surface76454358">
<path style=" stroke:none;fill-rule:nonzero;fill:rgb(84.313726%,11.764706%,12.156863%);fill-opacity:1;" d="M 25 50 C 11.191406 50 0 38.808594 0 25 C 0 11.191406 11.191406 0 25 0 C 38.808594 0 50 11.191406 50 25 C 50 38.808594 38.808594 50 25 50 Z M 25 50 "/>
<path style=" stroke:none;fill-rule:nonzero;fill:rgb(100%,100%,100%);fill-opacity:1;" d="M 12.203125 9.398438 L 12.039062 9.828125 L 10.089844 15.027344 L 10.050781 15.128906 L 10.050781 36.699219 L 17.199219 36.699219 L 17.199219 40.601562 L 22.015625 40.601562 L 22.21875 40.417969 L 25.933594 36.699219 L 31.765625 36.699219 L 31.96875 36.515625 L 39.949219 28.535156 L 39.949219 9.398438 Z M 13.097656 10.699219 L 38.648438 10.699219 L 38.648438 27.984375 L 31.234375 35.398438 L 25.386719 35.398438 L 21.484375 39.300781 L 18.5 39.300781 L 18.5 35.398438 L 11.351562 35.398438 L 11.351562 15.371094 Z M 15.25 12 L 15.25 31.5 L 20.449219 31.5 L 20.449219 36.3125 L 21.566406 35.21875 L 25.285156 31.5 L 33.0625 31.5 L 33.265625 31.316406 L 37.167969 27.417969 L 37.351562 27.214844 L 37.351562 12 Z M 16.550781 13.300781 L 36.050781 13.300781 L 36.050781 26.664062 L 32.515625 30.199219 L 24.734375 30.199219 L 24.53125 30.382812 L 21.75 33.164062 L 21.75 30.199219 L 16.550781 30.199219 Z M 21.75 17.199219 L 21.75 26.300781 L 25.648438 26.300781 L 25.648438 17.199219 Z M 28.25 17.199219 L 28.25 26.300781 L 32.148438 26.300781 L 32.148438 17.199219 Z M 23.050781 18.5 L 24.351562 18.5 L 24.351562 25 L 23.050781 25 Z M 29.550781 18.5 L 30.851562 18.5 L 30.851562 25 L 29.550781 25 Z M 29.550781 18.5 "/>
</g>
</svg>
