<?xml version="1.0" encoding="UTF-8"?>
<svg xmlns="http://www.w3.org/2000/svg" xmlns:xlink="http://www.w3.org/1999/xlink" viewBox="0 0 50 50" width="50px" height="50px">
<g id="surface76325895">
<path style=" stroke:none;fill-rule:nonzero;fill:rgb(84.313726%,11.764706%,12.156863%);fill-opacity:1;" d="M 25 50 C 11.191406 50 0 38.808594 0 25 C 0 11.191406 11.191406 0 25 0 C 38.808594 0 50 11.191406 50 25 C 50 38.808594 38.808594 50 25 50 Z M 25 50 "/>
<path style=" stroke:none;fill-rule:nonzero;fill:rgb(100%,100%,100%);fill-opacity:1;" d="M 24.441406 13.308594 C 19.617188 13.308594 15.089844 13.675781 12.675781 14.1875 C 11.070312 14.550781 9.679688 15.648438 9.390625 17.328125 C 9.097656 19.082031 8.804688 21.710938 8.804688 25 C 8.804688 28.289062 9.09375 30.84375 9.460938 32.671875 C 9.753906 34.277344 11.140625 35.449219 12.75 35.8125 C 15.308594 36.324219 19.691406 36.691406 24.511719 36.691406 C 29.335938 36.691406 33.71875 36.324219 36.273438 35.8125 C 37.882812 35.449219 39.273438 34.351562 39.5625 32.671875 C 39.855469 30.84375 40.222656 28.214844 40.292969 24.929688 C 40.292969 21.640625 39.929688 19.007812 39.5625 17.183594 C 39.273438 15.574219 37.882812 14.40625 36.273438 14.039062 C 33.71875 13.675781 29.261719 13.308594 24.441406 13.308594 Z M 24.441406 14.769531 C 29.703125 14.769531 33.9375 15.207031 35.984375 15.574219 C 37.078125 15.867188 37.957031 16.597656 38.101562 17.546875 C 38.539062 19.886719 38.832031 22.371094 38.832031 24.929688 C 38.761719 28.066406 38.394531 30.625 38.101562 32.453125 C 37.882812 33.839844 36.421875 34.277344 35.984375 34.425781 C 33.351562 34.9375 28.96875 35.300781 24.585938 35.300781 C 20.199219 35.300781 15.746094 35.007812 13.1875 34.425781 C 12.09375 34.132812 11.214844 33.402344 11.070312 32.453125 C 10.484375 30.40625 10.265625 27.703125 10.265625 25 C 10.265625 21.636719 10.558594 19.15625 10.851562 17.621094 C 11.070312 16.230469 12.601562 15.792969 12.96875 15.648438 C 15.378906 15.136719 19.839844 14.769531 24.441406 14.769531 Z M 20.496094 19.15625 L 20.496094 30.84375 L 30.722656 25 Z M 21.957031 21.640625 L 27.800781 25 L 21.957031 28.359375 Z M 21.957031 21.640625 "/>
</g>
</svg>
